<svg width="488" height="59" viewBox="0 0 488 59" fill="none" xmlns="http://www.w3.org/2000/svg">
<path d="M12.733 58.64C9.277 58.64 6.653 57.68 4.861 55.76C3.11167 53.84 2.237 51.088 2.237 47.504V43.856H8.893V47.824C8.893 50.768 10.109 52.24 12.541 52.24C13.7357 52.24 14.6317 51.8773 15.229 51.152C15.869 50.384 16.189 49.0613 16.189 47.184V43.536C16.189 41.488 15.8263 40.0373 15.101 39.184C14.3757 38.288 13.2023 37.84 11.581 37.84H9.213V31.44H11.773C13.181 31.44 14.2263 31.0773 14.909 30.352C15.6343 29.6267 15.997 28.4107 15.997 26.704V23.44C15.997 21.904 15.677 20.7733 15.037 20.048C14.397 19.3227 13.5437 18.96 12.477 18.96C10.2157 18.96 9.085 20.3467 9.085 23.12V26.064H2.429V23.696C2.429 20.112 3.30367 17.36 5.053 15.44C6.845 13.52 9.405 12.56 12.733 12.56C16.1037 12.56 18.6637 13.52 20.413 15.44C22.1623 17.3173 23.037 20.048 23.037 23.632V25.232C23.037 27.664 22.6317 29.6267 21.821 31.12C21.0103 32.5707 19.7517 33.616 18.045 34.256V34.384C19.8797 35.0667 21.2023 36.176 22.013 37.712C22.8237 39.248 23.229 41.2107 23.229 43.6V47.568C23.229 51.152 22.333 53.904 20.541 55.824C18.7917 57.7013 16.189 58.64 12.733 58.64ZM38.742 58.64C35.286 58.64 32.6407 57.6587 30.806 55.696C28.9713 53.7333 28.054 50.96 28.054 47.376V24.208C28.054 16.4427 31.638 12.56 38.806 12.56C42.2193 12.56 44.822 13.5413 46.614 15.504C48.406 17.424 49.302 20.1973 49.302 23.824V24.656H42.646V23.376C42.646 20.432 41.43 18.96 38.998 18.96C37.6753 18.96 36.694 19.3653 36.054 20.176C35.414 20.9867 35.094 22.416 35.094 24.464V33.04H35.222C36.4593 30.4373 38.5927 29.136 41.622 29.136C44.182 29.136 46.1233 30.0107 47.446 31.76C48.7687 33.5093 49.43 36.048 49.43 39.376V47.376C49.43 50.96 48.5127 53.7333 46.678 55.696C44.8433 57.6587 42.198 58.64 38.742 58.64ZM38.742 52.24C41.174 52.24 42.39 50.7893 42.39 47.888V39.952C42.39 37.008 41.174 35.536 38.742 35.536C36.31 35.536 35.094 37.008 35.094 39.952V47.888C35.094 50.7893 36.31 52.24 38.742 52.24ZM90.65 49.872H77.21V43.472L90.01 13.2H97.69V43.472H101.018V49.872H97.69V58H90.65V49.872ZM90.65 43.472V26H90.522L83.61 43.472H90.65Z" fill="#838383"/>
<path d="M69.615 13.2H75.695L58.031 58H51.951L69.615 13.2Z" fill="#B00000"/>
<path d="M143.776 58.64C140.363 58.64 137.781 57.68 136.032 55.76C134.283 53.7973 133.408 51.0027 133.408 47.376V44.816H140.064V47.888C140.064 50.7893 141.28 52.24 143.712 52.24C144.907 52.24 145.803 51.8987 146.4 51.216C147.04 50.4907 147.36 49.3387 147.36 47.76C147.36 45.8827 146.933 44.24 146.08 42.832C145.227 41.3813 143.648 39.6533 141.344 37.648C138.443 35.088 136.416 32.784 135.264 30.736C134.112 28.6453 133.536 26.2987 133.536 23.696C133.536 20.1547 134.432 17.424 136.224 15.504C138.016 13.5413 140.619 12.56 144.032 12.56C147.403 12.56 149.941 13.5413 151.648 15.504C153.397 17.424 154.272 20.1973 154.272 23.824V25.68H147.616V23.376C147.616 21.84 147.317 20.7307 146.72 20.048C146.123 19.3227 145.248 18.96 144.096 18.96C141.749 18.96 140.576 20.3893 140.576 23.248C140.576 24.8693 141.003 26.384 141.856 27.792C142.752 29.2 144.352 30.9067 146.656 32.912C149.6 35.472 151.627 37.7973 152.736 39.888C153.845 41.9787 154.4 44.432 154.4 47.248C154.4 50.9173 153.483 53.7333 151.648 55.696C149.856 57.6587 147.232 58.64 143.776 58.64ZM158.437 13.2H165.477V58H158.437V13.2ZM162.597 2.832H170.277L163.429 10.192H158.117L162.597 2.832ZM179.901 58.64C176.488 58.64 173.906 57.68 172.157 55.76C170.408 53.7973 169.533 51.0027 169.533 47.376V44.816H176.189V47.888C176.189 50.7893 177.405 52.24 179.837 52.24C181.032 52.24 181.928 51.8987 182.525 51.216C183.165 50.4907 183.485 49.3387 183.485 47.76C183.485 45.8827 183.058 44.24 182.205 42.832C181.352 41.3813 179.773 39.6533 177.469 37.648C174.568 35.088 172.541 32.784 171.389 30.736C170.237 28.6453 169.661 26.2987 169.661 23.696C169.661 20.1547 170.557 17.424 172.349 15.504C174.141 13.5413 176.744 12.56 180.157 12.56C183.528 12.56 186.066 13.5413 187.773 15.504C189.522 17.424 190.397 20.1973 190.397 23.824V25.68H183.741V23.376C183.741 21.84 183.442 20.7307 182.845 20.048C182.248 19.3227 181.373 18.96 180.221 18.96C177.874 18.96 176.701 20.3893 176.701 23.248C176.701 24.8693 177.128 26.384 177.981 27.792C178.877 29.2 180.477 30.9067 182.781 32.912C185.725 35.472 187.752 37.7973 188.861 39.888C189.97 41.9787 190.525 44.432 190.525 47.248C190.525 50.9173 189.608 53.7333 187.773 55.696C185.981 57.6587 183.357 58.64 179.901 58.64ZM194.562 13.2H204.61L209.09 45.264H209.218L213.698 13.2H223.746V58H217.09V24.08H216.962L211.842 58H205.954L200.834 24.08H200.706V58H194.562V13.2ZM239.175 58.64C235.719 58.64 233.074 57.6587 231.239 55.696C229.404 53.7333 228.487 50.96 228.487 47.376V23.824C228.487 20.24 229.404 17.4667 231.239 15.504C233.074 13.5413 235.719 12.56 239.175 12.56C242.631 12.56 245.276 13.5413 247.111 15.504C248.946 17.4667 249.863 20.24 249.863 23.824V47.376C249.863 50.96 248.946 53.7333 247.111 55.696C245.276 57.6587 242.631 58.64 239.175 58.64ZM239.175 52.24C241.607 52.24 242.823 50.768 242.823 47.824V23.376C242.823 20.432 241.607 18.96 239.175 18.96C236.743 18.96 235.527 20.432 235.527 23.376V47.824C235.527 50.768 236.743 52.24 239.175 52.24ZM263.776 58.64C260.363 58.64 257.781 57.68 256.032 55.76C254.283 53.7973 253.408 51.0027 253.408 47.376V44.816H260.064V47.888C260.064 50.7893 261.28 52.24 263.712 52.24C264.907 52.24 265.803 51.8987 266.4 51.216C267.04 50.4907 267.36 49.3387 267.36 47.76C267.36 45.8827 266.933 44.24 266.08 42.832C265.227 41.3813 263.648 39.6533 261.344 37.648C258.443 35.088 256.416 32.784 255.264 30.736C254.112 28.6453 253.536 26.2987 253.536 23.696C253.536 20.1547 254.432 17.424 256.224 15.504C258.016 13.5413 260.619 12.56 264.032 12.56C267.403 12.56 269.941 13.5413 271.648 15.504C273.397 17.424 274.272 20.1973 274.272 23.824V25.68H267.616V23.376C267.616 21.84 267.317 20.7307 266.72 20.048C266.123 19.3227 265.248 18.96 264.096 18.96C261.749 18.96 260.576 20.3893 260.576 23.248C260.576 24.8693 261.003 26.384 261.856 27.792C262.752 29.2 264.352 30.9067 266.656 32.912C269.6 35.472 271.627 37.7973 272.736 39.888C273.845 41.9787 274.4 44.432 274.4 47.248C274.4 50.9173 273.483 53.7333 271.648 55.696C269.856 57.6587 267.232 58.64 263.776 58.64ZM288.687 13.2H299.439C302.937 13.2 305.561 14.1387 307.311 16.016C309.06 17.8933 309.935 20.6453 309.935 24.272V46.928C309.935 50.5547 309.06 53.3067 307.311 55.184C305.561 57.0613 302.937 58 299.439 58H288.687V13.2ZM299.311 51.6C300.463 51.6 301.337 51.2587 301.935 50.576C302.575 49.8933 302.895 48.784 302.895 47.248V23.952C302.895 22.416 302.575 21.3067 301.935 20.624C301.337 19.9413 300.463 19.6 299.311 19.6H295.727V51.6H299.311ZM314.687 13.2H333.887V19.6H321.727V31.44H331.391V37.84H321.727V51.6H333.887V58H314.687V13.2ZM337.937 13.2H344.977V51.6H356.561V58H337.937V13.2ZM447.303 13.2H453.383L435.719 58H429.639L447.303 13.2Z" fill="white"/>
<path d="M380.043 23.824H372.683V18.832C374.688 18.832 376.288 18.6613 377.483 18.32C378.72 17.9787 379.701 17.424 380.427 16.656C381.152 15.8453 381.792 14.6933 382.347 13.2H387.083V58H380.043V23.824ZM405.732 58.64C402.318 58.64 399.716 57.68 397.924 55.76C396.132 53.7973 395.236 51.0027 395.236 47.376V46.544H401.892V47.824C401.892 50.768 403.108 52.24 405.54 52.24C406.862 52.24 407.844 51.8347 408.484 51.024C409.124 50.2133 409.444 48.784 409.444 46.736V38.16H409.316C408.078 40.7627 405.945 42.064 402.916 42.064C400.356 42.064 398.414 41.1893 397.092 39.44C395.769 37.6907 395.108 35.152 395.108 31.824V23.824C395.108 20.24 396.025 17.4667 397.86 15.504C399.694 13.5413 402.34 12.56 405.796 12.56C409.252 12.56 411.897 13.5413 413.732 15.504C415.566 17.4667 416.484 20.24 416.484 23.824V46.992C416.484 54.7573 412.9 58.64 405.732 58.64ZM405.796 35.664C408.228 35.664 409.444 34.192 409.444 31.248V23.312C409.444 20.4107 408.228 18.96 405.796 18.96C403.364 18.96 402.148 20.4107 402.148 23.312V31.248C402.148 34.192 403.364 35.664 405.796 35.664ZM475.964 58.64C472.55 58.64 469.969 57.68 468.22 55.76C466.47 53.7973 465.596 51.0027 465.596 47.376V44.816H472.252V47.888C472.252 50.7893 473.468 52.24 475.9 52.24C477.094 52.24 477.99 51.8987 478.588 51.216C479.228 50.4907 479.548 49.3387 479.548 47.76C479.548 45.8827 479.121 44.24 478.268 42.832C477.414 41.3813 475.836 39.6533 473.532 37.648C470.63 35.088 468.604 32.784 467.452 30.736C466.3 28.6453 465.724 26.2987 465.724 23.696C465.724 20.1547 466.62 17.424 468.411 15.504C470.204 13.5413 472.806 12.56 476.22 12.56C479.59 12.56 482.129 13.5413 483.836 15.504C485.585 17.424 486.46 20.1973 486.46 23.824V25.68H479.804V23.376C479.804 21.84 479.505 20.7307 478.908 20.048C478.31 19.3227 477.436 18.96 476.284 18.96C473.937 18.96 472.764 20.3893 472.764 23.248C472.764 24.8693 473.19 26.384 474.044 27.792C474.94 29.2 476.54 30.9067 478.844 32.912C481.788 35.472 483.814 37.7973 484.924 39.888C486.033 41.9787 486.588 44.432 486.588 47.248C486.588 50.9173 485.67 53.7333 483.836 55.696C482.044 57.6587 479.42 58.64 475.964 58.64Z" fill="#B00000"/>
</svg>
