<svg width="310" height="39" viewBox="0 0 310 39" fill="none" xmlns="http://www.w3.org/2000/svg">
<path d="M95.499 32.36C93.579 32.36 92.127 31.82 91.143 30.74C90.159 29.636 89.667 28.064 89.667 26.024V24.584H93.411V26.312C93.411 27.944 94.095 28.76 95.463 28.76C96.135 28.76 96.639 28.568 96.975 28.184C97.335 27.776 97.515 27.128 97.515 26.24C97.515 25.184 97.275 24.26 96.795 23.468C96.315 22.652 95.427 21.68 94.131 20.552C92.499 19.112 91.359 17.816 90.711 16.664C90.063 15.488 89.739 14.168 89.739 12.704C89.739 10.712 90.243 9.176 91.251 8.096C92.259 6.992 93.723 6.44 95.643 6.44C97.539 6.44 98.967 6.992 99.927 8.096C100.911 9.176 101.403 10.736 101.403 12.776V13.82H97.659V12.524C97.659 11.66 97.491 11.036 97.155 10.652C96.819 10.244 96.327 10.04 95.679 10.04C94.359 10.04 93.699 10.844 93.699 12.452C93.699 13.364 93.939 14.216 94.419 15.008C94.923 15.8 95.823 16.76 97.119 17.888C98.775 19.328 99.915 20.636 100.539 21.812C101.163 22.988 101.475 24.368 101.475 25.952C101.475 28.016 100.959 29.6 99.927 30.704C98.919 31.808 97.443 32.36 95.499 32.36ZM103.746 6.8H107.706V32H103.746V6.8ZM106.086 0.967998H110.406L106.554 5.108H103.566L106.086 0.967998ZM115.819 32.36C113.899 32.36 112.447 31.82 111.463 30.74C110.479 29.636 109.987 28.064 109.987 26.024V24.584H113.731V26.312C113.731 27.944 114.415 28.76 115.783 28.76C116.455 28.76 116.959 28.568 117.295 28.184C117.655 27.776 117.835 27.128 117.835 26.24C117.835 25.184 117.595 24.26 117.115 23.468C116.635 22.652 115.747 21.68 114.451 20.552C112.819 19.112 111.679 17.816 111.031 16.664C110.383 15.488 110.059 14.168 110.059 12.704C110.059 10.712 110.563 9.176 111.571 8.096C112.579 6.992 114.043 6.44 115.963 6.44C117.859 6.44 119.287 6.992 120.247 8.096C121.231 9.176 121.723 10.736 121.723 12.776V13.82H117.979V12.524C117.979 11.66 117.811 11.036 117.475 10.652C117.139 10.244 116.647 10.04 115.999 10.04C114.679 10.04 114.019 10.844 114.019 12.452C114.019 13.364 114.259 14.216 114.739 15.008C115.243 15.8 116.143 16.76 117.439 17.888C119.095 19.328 120.235 20.636 120.859 21.812C121.483 22.988 121.795 24.368 121.795 25.952C121.795 28.016 121.279 29.6 120.247 30.704C119.239 31.808 117.763 32.36 115.819 32.36ZM124.066 6.8H129.718L132.238 24.836H132.31L134.83 6.8H140.482V32H136.738V12.92H136.666L133.786 32H130.474L127.594 12.92H127.522V32H124.066V6.8ZM149.161 32.36C147.217 32.36 145.729 31.808 144.697 30.704C143.665 29.6 143.149 28.04 143.149 26.024V12.776C143.149 10.76 143.665 9.2 144.697 8.096C145.729 6.992 147.217 6.44 149.161 6.44C151.105 6.44 152.593 6.992 153.625 8.096C154.657 9.2 155.173 10.76 155.173 12.776V26.024C155.173 28.04 154.657 29.6 153.625 30.704C152.593 31.808 151.105 32.36 149.161 32.36ZM149.161 28.76C150.529 28.76 151.213 27.932 151.213 26.276V12.524C151.213 10.868 150.529 10.04 149.161 10.04C147.793 10.04 147.109 10.868 147.109 12.524V26.276C147.109 27.932 147.793 28.76 149.161 28.76ZM162.999 32.36C161.079 32.36 159.627 31.82 158.643 30.74C157.659 29.636 157.167 28.064 157.167 26.024V24.584H160.911V26.312C160.911 27.944 161.595 28.76 162.963 28.76C163.635 28.76 164.139 28.568 164.475 28.184C164.835 27.776 165.015 27.128 165.015 26.24C165.015 25.184 164.775 24.26 164.295 23.468C163.815 22.652 162.927 21.68 161.631 20.552C159.999 19.112 158.859 17.816 158.211 16.664C157.563 15.488 157.239 14.168 157.239 12.704C157.239 10.712 157.743 9.176 158.751 8.096C159.759 6.992 161.223 6.44 163.143 6.44C165.039 6.44 166.467 6.992 167.427 8.096C168.411 9.176 168.903 10.736 168.903 12.776V13.82H165.159V12.524C165.159 11.66 164.991 11.036 164.655 10.652C164.319 10.244 163.827 10.04 163.179 10.04C161.859 10.04 161.199 10.844 161.199 12.452C161.199 13.364 161.439 14.216 161.919 15.008C162.423 15.8 163.323 16.76 164.619 17.888C166.275 19.328 167.415 20.636 168.039 21.812C168.663 22.988 168.975 24.368 168.975 25.952C168.975 28.016 168.459 29.6 167.427 30.704C166.419 31.808 164.943 32.36 162.999 32.36ZM177.011 6.8H183.059C185.027 6.8 186.503 7.328 187.487 8.384C188.471 9.44 188.963 10.988 188.963 13.028V25.772C188.963 27.812 188.471 29.36 187.487 30.416C186.503 31.472 185.027 32 183.059 32H177.011V6.8ZM182.987 28.4C183.635 28.4 184.127 28.208 184.463 27.824C184.823 27.44 185.003 26.816 185.003 25.952V12.848C185.003 11.984 184.823 11.36 184.463 10.976C184.127 10.592 183.635 10.4 182.987 10.4H180.971V28.4H182.987ZM191.636 6.8H202.436V10.4H195.596V17.06H201.032V20.66H195.596V28.4H202.436V32H191.636V6.8ZM204.714 6.8H208.674V28.4H215.19V32H204.714V6.8ZM266.233 6.8H269.653L259.717 32H256.297L266.233 6.8Z" fill="white"/>
<path d="M228.399 12.776H224.259V9.968C225.387 9.968 226.287 9.872 226.959 9.68C227.655 9.488 228.207 9.176 228.615 8.744C229.023 8.288 229.383 7.64 229.695 6.8H232.359V32H228.399V12.776ZM242.849 32.36C240.929 32.36 239.465 31.82 238.457 30.74C237.449 29.636 236.945 28.064 236.945 26.024V25.556H240.689V26.276C240.689 27.932 241.373 28.76 242.741 28.76C243.485 28.76 244.037 28.532 244.397 28.076C244.757 27.62 244.937 26.816 244.937 25.664V20.84H244.865C244.169 22.304 242.969 23.036 241.265 23.036C239.825 23.036 238.733 22.544 237.989 21.56C237.245 20.576 236.873 19.148 236.873 17.276V12.776C236.873 10.76 237.389 9.2 238.421 8.096C239.453 6.992 240.941 6.44 242.885 6.44C244.829 6.44 246.317 6.992 247.349 8.096C248.381 9.2 248.897 10.76 248.897 12.776V25.808C248.897 30.176 246.881 32.36 242.849 32.36ZM242.885 19.436C244.253 19.436 244.937 18.608 244.937 16.952V12.488C244.937 10.856 244.253 10.04 242.885 10.04C241.517 10.04 240.833 10.856 240.833 12.488V16.952C240.833 18.608 241.517 19.436 242.885 19.436ZM282.354 32.36C280.434 32.36 278.982 31.82 277.998 30.74C277.014 29.636 276.522 28.064 276.522 26.024V24.584H280.266V26.312C280.266 27.944 280.95 28.76 282.318 28.76C282.99 28.76 283.494 28.568 283.83 28.184C284.19 27.776 284.37 27.128 284.37 26.24C284.37 25.184 284.13 24.26 283.65 23.468C283.17 22.652 282.282 21.68 280.986 20.552C279.354 19.112 278.214 17.816 277.566 16.664C276.918 15.488 276.594 14.168 276.594 12.704C276.594 10.712 277.098 9.176 278.106 8.096C279.114 6.992 280.578 6.44 282.498 6.44C284.394 6.44 285.822 6.992 286.782 8.096C287.766 9.176 288.258 10.736 288.258 12.776V13.82H284.514V12.524C284.514 11.66 284.346 11.036 284.01 10.652C283.674 10.244 283.182 10.04 282.534 10.04C281.214 10.04 280.554 10.844 280.554 12.452C280.554 13.364 280.794 14.216 281.274 15.008C281.778 15.8 282.678 16.76 283.974 17.888C285.63 19.328 286.77 20.636 287.394 21.812C288.018 22.988 288.33 24.368 288.33 25.952C288.33 28.016 287.814 29.6 286.782 30.704C285.774 31.808 284.298 32.36 282.354 32.36Z" fill="#B00000"/>
<path d="M8.47481 32.36C6.53081 32.36 5.05481 31.82 4.04681 30.74C3.06281 29.66 2.57081 28.112 2.57081 26.096V24.044H6.31481V26.276C6.31481 27.932 6.99881 28.76 8.36681 28.76C9.03881 28.76 9.54281 28.556 9.87881 28.148C10.2388 27.716 10.4188 26.972 10.4188 25.916V23.864C10.4188 22.712 10.2148 21.896 9.80681 21.416C9.39881 20.912 8.73881 20.66 7.82681 20.66H6.49481V17.06H7.93481C8.72681 17.06 9.31481 16.856 9.69881 16.448C10.1068 16.04 10.3108 15.356 10.3108 14.396V12.56C10.3108 11.696 10.1308 11.06 9.77081 10.652C9.41081 10.244 8.93081 10.04 8.33081 10.04C7.05881 10.04 6.42281 10.82 6.42281 12.38V14.036H2.67881V12.704C2.67881 10.688 3.17081 9.14 4.15481 8.06C5.16281 6.98 6.60281 6.44 8.47481 6.44C10.3708 6.44 11.8108 6.98 12.7948 8.06C13.7788 9.116 14.2708 10.652 14.2708 12.668V13.568C14.2708 14.936 14.0428 16.04 13.5868 16.88C13.1308 17.696 12.4228 18.284 11.4628 18.644V18.716C12.4948 19.1 13.2388 19.724 13.6948 20.588C14.1508 21.452 14.3788 22.556 14.3788 23.9V26.132C14.3788 28.148 13.8748 29.696 12.8668 30.776C11.8828 31.832 10.4188 32.36 8.47481 32.36ZM23.1049 32.36C21.1609 32.36 19.6729 31.808 18.6409 30.704C17.6089 29.6 17.0929 28.04 17.0929 26.024V12.992C17.0929 8.624 19.1089 6.44 23.1409 6.44C25.0609 6.44 26.5249 6.992 27.5329 8.096C28.5409 9.176 29.0449 10.736 29.0449 12.776V13.244H25.3009V12.524C25.3009 10.868 24.6169 10.04 23.2489 10.04C22.5049 10.04 21.9529 10.268 21.5929 10.724C21.2329 11.18 21.0529 11.984 21.0529 13.136V17.96H21.1249C21.8209 16.496 23.0209 15.764 24.7249 15.764C26.1649 15.764 27.2569 16.256 28.0009 17.24C28.7449 18.224 29.1169 19.652 29.1169 21.524V26.024C29.1169 28.04 28.6009 29.6 27.5689 30.704C26.5369 31.808 25.0489 32.36 23.1049 32.36ZM23.1049 28.76C24.4729 28.76 25.1569 27.944 25.1569 26.312V21.848C25.1569 20.192 24.4729 19.364 23.1049 19.364C21.7369 19.364 21.0529 20.192 21.0529 21.848V26.312C21.0529 27.944 21.7369 28.76 23.1049 28.76ZM52.3031 27.428H44.7431V23.828L51.9431 6.8H56.2631V23.828H58.1351V27.428H56.2631V32H52.3031V27.428ZM52.3031 23.828V14H52.2311L48.3431 23.828H52.3031Z" fill="#838383"/>
<path d="M40.4709 6.8H43.8909L33.9549 32H30.5349L40.4709 6.8Z" fill="#B00000"/>
</svg>
