<svg width="38" height="19" viewBox="0 0 38 19" fill="none" xmlns="http://www.w3.org/2000/svg">
<path d="M4.14988 18.24C2.85388 18.24 1.86988 17.88 1.19788 17.16C0.541875 16.44 0.213875 15.408 0.213875 14.064V12.696H2.70988V14.184C2.70988 15.288 3.16588 15.84 4.07788 15.84C4.52588 15.84 4.86188 15.704 5.08588 15.432C5.32588 15.144 5.44588 14.648 5.44588 13.944V12.576C5.44588 11.808 5.30988 11.264 5.03788 10.944C4.76588 10.608 4.32588 10.44 3.71788 10.44H2.82988V8.04H3.78988C4.31788 8.04 4.70988 7.904 4.96588 7.632C5.23788 7.36 5.37388 6.904 5.37388 6.264V5.04C5.37388 4.464 5.25388 4.04 5.01388 3.768C4.77388 3.496 4.45388 3.36 4.05388 3.36C3.20588 3.36 2.78188 3.88 2.78188 4.92V6.024H0.285875V5.136C0.285875 3.792 0.613875 2.76 1.26988 2.04C1.94188 1.32 2.90188 0.959999 4.14988 0.959999C5.41388 0.959999 6.37388 1.32 7.02988 2.04C7.68588 2.744 8.01388 3.768 8.01388 5.112V5.712C8.01388 6.624 7.86188 7.36 7.55788 7.92C7.25388 8.464 6.78188 8.856 6.14188 9.096V9.144C6.82988 9.4 7.32588 9.816 7.62988 10.392C7.93388 10.968 8.08588 11.704 8.08588 12.6V14.088C8.08588 15.432 7.74988 16.464 7.07788 17.184C6.42188 17.888 5.44588 18.24 4.14988 18.24ZM13.9033 18.24C12.6073 18.24 11.6153 17.872 10.9273 17.136C10.2393 16.4 9.89525 15.36 9.89525 14.016V5.328C9.89525 2.416 11.2393 0.959999 13.9273 0.959999C15.2073 0.959999 16.1833 1.328 16.8553 2.064C17.5273 2.784 17.8633 3.824 17.8633 5.184V5.496H15.3672V5.016C15.3672 3.912 14.9113 3.36 13.9993 3.36C13.5033 3.36 13.1353 3.512 12.8953 3.816C12.6553 4.12 12.5353 4.656 12.5353 5.424V8.64H12.5833C13.0473 7.664 13.8473 7.176 14.9833 7.176C15.9433 7.176 16.6713 7.504 17.1673 8.16C17.6633 8.816 17.9113 9.768 17.9113 11.016V14.016C17.9113 15.36 17.5673 16.4 16.8793 17.136C16.1913 17.872 15.1993 18.24 13.9033 18.24ZM13.9033 15.84C14.8153 15.84 15.2713 15.296 15.2713 14.208V11.232C15.2713 10.128 14.8153 9.576 13.9033 9.576C12.9913 9.576 12.5353 10.128 12.5353 11.232V14.208C12.5353 15.296 12.9913 15.84 13.9033 15.84ZM33.3688 14.952H28.3288V12.552L33.1288 1.2H36.0088V12.552H37.2568V14.952H36.0088V18H33.3688V14.952ZM33.3688 12.552V6H33.3208L30.7288 12.552H33.3688Z" fill="#838383"/>
<path d="M25.4806 1.2H27.7606L21.1366 18H18.8566L25.4806 1.2Z" fill="#B00000"/>
</svg>
