<svg width="100" height="51" viewBox="0 0 100 51" fill="none" xmlns="http://www.w3.org/2000/svg">
<path d="M54.1094 13.633C52.3738 9.93508 50.9663 6.09196 49.9032 2.14795V2.14795C48.8401 6.09196 47.4327 9.93508 45.6971 13.633C42.8748 19.5932 42.2056 22.1401 41.6653 24.0553C41.4204 24.9156 41.0606 27.4948 41.6371 30.094H48.3439V29.691C48.3439 29.691 45.2717 29.0926 45.305 25.5503C45.3727 25.0048 45.5336 24.4749 45.7807 23.9837H45.7666C45.8647 23.7884 45.9766 23.6002 46.1013 23.4206H46.1093C46.7625 22.4796 47.9327 21.5819 50.0242 21.5759H50.0352C50.1491 21.5759 50.26 21.5759 50.3689 21.585H50.4394C50.5281 21.591 50.6148 21.5991 50.6985 21.6081L50.8356 21.6243C50.8991 21.6323 50.9605 21.6404 51.022 21.6504C51.1006 21.6635 51.1772 21.6776 51.2539 21.6938L51.3325 21.7089C54.4893 22.4141 54.7454 25.5463 54.7454 25.5463C54.7786 29.0875 51.7064 29.687 51.7064 29.687V30.09H58.1744C58.7489 27.4907 58.3901 24.9116 58.1451 24.0512C57.6009 22.1381 56.9326 19.5932 54.1094 13.633Z" fill="#838383"/>
<path d="M50.8861 30.8587L51.135 29.5268C51.135 29.5268 53.1509 28.601 53.2205 25.7901C53.1672 25.2316 53.01 24.688 52.7568 24.1873H52.7467C52.6481 23.9942 52.5317 23.8107 52.399 23.6392H52.4091C51.9757 23.0791 51.3104 22.6025 50.2924 22.5008H50.2813C50.1956 22.4927 50.11 22.4857 50.0202 22.4836H50.0102H49.9315L49.7854 22.4937C49.736 22.4937 49.6846 22.5038 49.6413 22.5098L49.5707 22.5199C49.5143 22.528 49.4598 22.538 49.4064 22.5471H49.4004C46.9813 23.0257 46.814 25.7861 46.814 25.7861C46.8805 28.5969 48.8994 29.5228 48.8994 29.5228L49.1484 30.8547H41.8176C42.6603 33.6877 44.7477 36.3453 49.4588 36.5972C49.6523 36.5972 49.8479 36.5972 50.0434 36.5972H50.2632C55.0206 36.3655 57.1232 33.6967 57.9689 30.8547L50.8861 30.8587Z" fill="#838383"/>
<path d="M44.8526 12.961C44.9625 12.7273 45.0744 12.4906 45.1913 12.2457C45.9977 10.5593 46.6901 8.90499 47.2798 7.38272C37.9865 7.14395 31.5085 5.67507 30.044 5.31238C27.4344 6.97066 25.3218 8.95235 23.8633 11.1557C25.1212 11.3501 33.855 12.6316 44.8526 12.961Z" fill="#838383"/>
<path d="M40.8388 23.4749C41.3851 21.5607 42.0675 19.0421 44.5924 13.6018C31.0628 13.3217 24.5747 12.018 23.5163 11.7883C22.2816 13.8284 21.6073 16.0529 21.6073 18.3802C21.6073 20.7769 22.326 23.0649 23.6282 25.1614C24.8327 24.9045 30.2131 23.8789 40.8388 23.4749Z" fill="#838383"/>
<path d="M69.9572 5.31335C69.9268 5.32477 69.8948 5.33124 69.8624 5.3325C69.8463 5.3308 69.8305 5.32742 69.8151 5.32242C68.2669 5.70123 61.7959 7.15198 52.543 7.38269H52.552C53.1407 8.90396 53.8362 10.5572 54.6395 12.2417C54.7564 12.4885 54.8693 12.7273 54.9792 12.963C65.7964 12.6507 74.4617 11.4095 76.0532 11.1697C76.0708 11.1516 76.0908 11.136 76.1127 11.1234C74.6562 8.94023 72.5536 6.9656 69.9572 5.31335Z" fill="#838383"/>
<path d="M76.3074 25.1422C76.3295 25.1448 76.3515 25.1492 76.3729 25.1553C77.6742 23.0608 78.3969 20.7759 78.3969 18.3801C78.3969 16.0539 77.7104 13.8324 76.4818 11.7863C76.4614 11.7927 76.4405 11.7971 76.4193 11.7994C76.4122 11.7994 76.4072 11.7994 76.4011 11.7994C76.4015 11.8024 76.4015 11.8054 76.4011 11.8084C75.0686 12.0925 68.511 13.3428 55.2344 13.6067H55.2414C57.7562 19.035 58.4426 21.5526 58.9869 23.4618H58.9779C69.2589 23.8345 74.7239 24.7936 76.3044 25.113L76.3074 25.1422Z" fill="#838383"/>
<path d="M49.6876 0.0111428C49.6796 0.0111428 49.6715 0.0111424 49.6675 0.0020752C42.4708 0.0302842 35.9131 1.79436 30.949 4.68074C32.4286 5.02932 39.1526 6.50727 47.4893 6.75511C48.7553 3.41033 49.485 0.789912 49.6896 0.0232319C49.6885 0.0192871 49.6878 0.0152338 49.6876 0.0111428Z" fill="#838383"/>
<path d="M50.1755 0C50.1654 0.00750851 50.1537 0.0123597 50.1412 0.0141044C50.1412 0.0141044 50.1412 0.0201489 50.1412 0.0231713C50.3428 0.789852 51.0756 3.41127 52.3426 6.75807C60.7145 6.51527 67.4728 5.02725 68.9544 4.68068C68.9807 4.67464 69.0048 4.67161 69.029 4.66758C64.0307 1.7681 57.4226 0.00302239 50.1755 0Z" fill="#838383"/>
<path d="M40.7806 30.1121C40.2595 27.7465 40.458 25.4012 40.6909 24.1781C31.9994 24.6365 25.3974 25.5795 23.9883 25.79C25.5062 28.0155 27.6925 30.0083 30.3847 31.6615C34.9627 30.5684 39.5005 30.1987 40.7907 30.11H40.7806V30.1121Z" fill="#838383"/>
<path d="M75.9565 25.7447C75.9495 25.7447 75.9455 25.7537 75.9384 25.7578H75.9717C73.9467 25.4636 67.4223 24.5861 59.139 24.1589C59.4789 26.1288 59.4295 28.146 58.9939 30.0969C59.8668 30.1695 64.5235 30.6007 69.42 31.7774C72.204 30.0999 74.4597 28.0618 76.01 25.781C75.9906 25.7713 75.9726 25.7591 75.9565 25.7447V25.7447Z" fill="#838383"/>
<path d="M53.9169 36.6354C53.8786 36.6515 53.8413 36.6716 53.803 36.6888C59.4374 36.2203 64.5517 34.6799 68.6389 32.3939C67.8325 32.0997 65.0617 31.2222 58.8618 30.782C58.1996 33.1294 56.7734 35.4264 53.9169 36.6354Z" fill="#838383"/>
<path d="M40.9114 30.8021C34.8365 31.2454 32.1423 32.1038 31.3702 32.398C35.4091 34.6547 40.4518 36.184 46.0065 36.6706C45.8997 36.6313 45.8422 36.6071 45.8422 36.6071C42.9595 35.4788 41.5474 33.1727 40.9114 30.8021Z" fill="#838383"/>
<path d="M0.151305 45.1083C0.048185 45.4617 -0.00274941 45.8282 0.000114363 46.1963C0.000114363 49.5381 3.14388 49.9582 3.76276 50.1567H11.282C12.3706 50.0741 14.2363 49.5623 14.1204 47.6813C14.0044 45.8004 11.034 45.5778 11.034 45.5778H7.89733V47.0134H10.0936C10.0936 47.0134 10.8526 47.2149 10.9 47.8627C10.9474 48.5105 10.1239 48.721 10.1239 48.721H5.64458C5.19907 48.4984 3.76276 48.1166 3.63979 46.147C3.61145 45.7971 3.64766 45.445 3.74663 45.1083H0.151305Z" fill="#838383"/>
<path d="M4.16807 44.3627C4.3917 44.1148 4.68053 43.9346 5.00163 43.8429H13.5177V42.4072H3.76288C3.76288 42.4072 1.49198 42.6762 0.479004 44.3627H4.16807Z" fill="#838383"/>
<path d="M19.258 45.1083V45.5778H29.0622V47.0134H19.258C19.0725 48.449 20.3224 48.7261 20.3224 48.7261H29.0622V50.1617H20.03C16.1545 50.1617 15.9197 48.2556 15.9197 48.2556C15.8234 47.211 15.8049 46.1607 15.8642 45.1133L19.258 45.1083Z" fill="#838383"/>
<path d="M15.9198 44.3626C16.1214 42.2832 19.4849 42.4072 19.4849 42.4072H29.0664V43.8428H20.4989C20.4989 43.8428 19.5998 43.742 19.5171 44.3626H15.9198Z" fill="#838383"/>
<path d="M65.9075 45.1083V45.5778H75.7117V47.0134H65.9075C65.722 48.449 66.9719 48.7261 66.9719 48.7261H75.7117V50.1617H66.6756C62.8 50.1617 62.5652 48.2556 62.5652 48.2556C62.4689 47.211 62.4504 46.1607 62.5097 45.1133L65.9075 45.1083Z" fill="#838383"/>
<path d="M62.5652 44.3626C62.7668 42.2832 66.1303 42.4072 66.1303 42.4072H75.7118V43.8428H67.1443C67.1443 43.8428 66.2452 43.742 66.1625 44.3626H62.5652Z" fill="#838383"/>
<path d="M44.3707 44.3616C43.1239 42.2873 40.084 42.4072 40.7522 42.4072H35.1319C35.1319 42.4072 32.8701 42.6439 31.7957 44.3626H35.5522C35.7893 44.1064 36.0968 43.9259 36.4362 43.8438H39.8733C40.185 43.9566 40.459 44.1541 40.6645 44.414L44.3707 44.3616Z" fill="#838383"/>
<path d="M44.702 45.1083C44.7836 45.3744 44.8373 45.6482 44.8623 45.9254C45.209 49.6127 40.8305 50.1567 40.8305 50.1567H35.5529C35.3423 50.1567 31.1462 49.785 31.245 46.2961C31.2534 45.8924 31.3214 45.4922 31.4466 45.1083H35.1084C34.9492 45.5637 34.8877 46.1813 35.0328 47.0134C35.0328 47.0134 35.3796 48.2425 36.4198 48.7261H39.5273C39.5273 48.7261 41.0624 48.1821 41.1238 47.0134C41.1238 47.0134 41.3153 46.006 41.023 45.1073L44.702 45.1083Z" fill="#838383"/>
<path d="M60.27 42.4072H47.0327V44.3627H60.27V42.4072Z" fill="#838383"/>
<path d="M51.9685 45.1052H55.2856V50.1536H52.034L51.9685 45.1052Z" fill="#838383"/>
<path d="M81.332 45.1052H77.8657V50.1536H81.332V45.1052Z" fill="#838383"/>
<path d="M85.9672 44.3617C84.5975 42.4536 82.636 42.4072 82.636 42.4072H79.8793C77.9813 42.4979 77.8634 44.3627 77.8634 44.3627L85.9672 44.3617Z" fill="#838383"/>
<path d="M96.683 44.3627C96.0056 42.7951 93.893 42.4072 93.893 42.4072H91.1241C88.7807 42.4979 88.9782 44.3627 88.9782 44.3627H92.3619V44.131C92.3619 44.131 92.3921 43.8429 92.7419 43.8429C93.0917 43.8429 93.0554 44.0161 93.1219 44.1451L93.1874 44.3597L96.683 44.3627Z" fill="#838383"/>
<path d="M97.1082 45.1041L100 50.1535H96.6002L93.6621 45.1051L97.1082 45.1041Z" fill="#838383"/>
<path d="M92.3578 45.1083V47.0134C92.3578 50.1809 90.097 50.1567 90.097 50.1567H87.2939C84.5513 50.3844 82.6201 45.1083 82.6201 45.1083H86.416C86.416 45.1083 87.5248 47.8284 87.935 48.2093C87.935 48.2093 88.5398 49.0152 88.9742 48.0612V45.1083H92.3578Z" fill="#838383"/>
</svg>
