<svg width="134" height="22" viewBox="0 0 134 22" fill="none" xmlns="http://www.w3.org/2000/svg">
<path d="M4.666 21.24C3.386 21.24 2.418 20.88 1.762 20.16C1.106 19.424 0.778 18.376 0.778 17.016V16.056H3.274V17.208C3.274 18.296 3.73 18.84 4.642 18.84C5.09 18.84 5.426 18.712 5.65 18.456C5.89 18.184 6.01 17.752 6.01 17.16C6.01 16.456 5.85 15.84 5.53 15.312C5.21 14.768 4.618 14.12 3.754 13.368C2.666 12.408 1.906 11.544 1.474 10.776C1.042 9.992 0.826 9.112 0.826 8.136C0.826 6.808 1.162 5.784 1.834 5.064C2.506 4.328 3.482 3.96 4.762 3.96C6.026 3.96 6.978 4.328 7.618 5.064C8.274 5.784 8.602 6.824 8.602 8.184V8.88H6.106V8.016C6.106 7.44 5.994 7.024 5.77 6.768C5.546 6.496 5.218 6.36 4.786 6.36C3.906 6.36 3.466 6.896 3.466 7.968C3.466 8.576 3.626 9.144 3.946 9.672C4.282 10.2 4.882 10.84 5.746 11.592C6.85 12.552 7.61 13.424 8.026 14.208C8.442 14.992 8.65 15.912 8.65 16.968C8.65 18.344 8.306 19.4 7.618 20.136C6.946 20.872 5.962 21.24 4.666 21.24ZM10.1637 4.2H12.8037V21H10.1637V4.2ZM11.7237 0.311999H14.6037L12.0357 3.072H10.0437L11.7237 0.311999ZM18.2129 21.24C16.9329 21.24 15.9649 20.88 15.3089 20.16C14.6529 19.424 14.3249 18.376 14.3249 17.016V16.056H16.8209V17.208C16.8209 18.296 17.2769 18.84 18.1889 18.84C18.6369 18.84 18.9729 18.712 19.1969 18.456C19.4369 18.184 19.5569 17.752 19.5569 17.16C19.5569 16.456 19.3969 15.84 19.0769 15.312C18.7569 14.768 18.1649 14.12 17.3009 13.368C16.2129 12.408 15.4529 11.544 15.0209 10.776C14.5889 9.992 14.3729 9.112 14.3729 8.136C14.3729 6.808 14.7089 5.784 15.3809 5.064C16.0529 4.328 17.0289 3.96 18.3089 3.96C19.5729 3.96 20.5249 4.328 21.1649 5.064C21.8209 5.784 22.1489 6.824 22.1489 8.184V8.88H19.6529V8.016C19.6529 7.44 19.5409 7.024 19.3169 6.768C19.0929 6.496 18.7649 6.36 18.3329 6.36C17.4529 6.36 17.0129 6.896 17.0129 7.968C17.0129 8.576 17.1729 9.144 17.4929 9.672C17.8289 10.2 18.4289 10.84 19.2929 11.592C20.3969 12.552 21.1569 13.424 21.5729 14.208C21.9889 14.992 22.1969 15.912 22.1969 16.968C22.1969 18.344 21.8529 19.4 21.1649 20.136C20.4929 20.872 19.5089 21.24 18.2129 21.24ZM23.7106 4.2H27.4786L29.1586 16.224H29.2066L30.8866 4.2H34.6546V21H32.1586V8.28H32.1106L30.1906 21H27.9826L26.0626 8.28H26.0146V21H23.7106V4.2ZM40.4406 21.24C39.1446 21.24 38.1526 20.872 37.4646 20.136C36.7766 19.4 36.4326 18.36 36.4326 17.016V8.184C36.4326 6.84 36.7766 5.8 37.4646 5.064C38.1526 4.328 39.1446 3.96 40.4406 3.96C41.7366 3.96 42.7286 4.328 43.4166 5.064C44.1046 5.8 44.4486 6.84 44.4486 8.184V17.016C44.4486 18.36 44.1046 19.4 43.4166 20.136C42.7286 20.872 41.7366 21.24 40.4406 21.24ZM40.4406 18.84C41.3526 18.84 41.8086 18.288 41.8086 17.184V8.016C41.8086 6.912 41.3526 6.36 40.4406 6.36C39.5286 6.36 39.0726 6.912 39.0726 8.016V17.184C39.0726 18.288 39.5286 18.84 40.4406 18.84ZM49.666 21.24C48.386 21.24 47.418 20.88 46.762 20.16C46.106 19.424 45.778 18.376 45.778 17.016V16.056H48.274V17.208C48.274 18.296 48.73 18.84 49.642 18.84C50.09 18.84 50.426 18.712 50.65 18.456C50.89 18.184 51.01 17.752 51.01 17.16C51.01 16.456 50.85 15.84 50.53 15.312C50.21 14.768 49.618 14.12 48.754 13.368C47.666 12.408 46.906 11.544 46.474 10.776C46.042 9.992 45.826 9.112 45.826 8.136C45.826 6.808 46.162 5.784 46.834 5.064C47.506 4.328 48.482 3.96 49.762 3.96C51.026 3.96 51.978 4.328 52.618 5.064C53.274 5.784 53.602 6.824 53.602 8.184V8.88H51.106V8.016C51.106 7.44 50.994 7.024 50.77 6.768C50.546 6.496 50.218 6.36 49.786 6.36C48.906 6.36 48.466 6.896 48.466 7.968C48.466 8.576 48.626 9.144 48.946 9.672C49.282 10.2 49.882 10.84 50.746 11.592C51.85 12.552 52.61 13.424 53.026 14.208C53.442 14.992 53.65 15.912 53.65 16.968C53.65 18.344 53.306 19.4 52.618 20.136C51.946 20.872 50.962 21.24 49.666 21.24ZM59.0074 4.2H63.0394C64.3514 4.2 65.3354 4.552 65.9914 5.256C66.6474 5.96 66.9754 6.992 66.9754 8.352V16.848C66.9754 18.208 66.6474 19.24 65.9914 19.944C65.3354 20.648 64.3514 21 63.0394 21H59.0074V4.2ZM62.9914 18.6C63.4234 18.6 63.7514 18.472 63.9754 18.216C64.2154 17.96 64.3354 17.544 64.3354 16.968V8.232C64.3354 7.656 64.2154 7.24 63.9754 6.984C63.7514 6.728 63.4234 6.6 62.9914 6.6H61.6474V18.6H62.9914ZM68.7574 4.2H75.9574V6.6H71.3974V11.04H75.0214V13.44H71.3974V18.6H75.9574V21H68.7574V4.2ZM77.4762 4.2H80.1162V18.6H84.4602V21H77.4762V4.2ZM118.488 4.2H120.768L114.144 21H111.864L118.488 4.2Z" fill="white"/>
<path d="M93.2659 8.184H90.5059V6.312C91.2579 6.312 91.8579 6.248 92.3059 6.12C92.7699 5.992 93.1379 5.784 93.4099 5.496C93.6819 5.192 93.9219 4.76 94.1299 4.2H95.9059V21H93.2659V8.184ZM102.899 21.24C101.619 21.24 100.643 20.88 99.9713 20.16C99.2993 19.424 98.9633 18.376 98.9633 17.016V16.704H101.459V17.184C101.459 18.288 101.915 18.84 102.827 18.84C103.323 18.84 103.691 18.688 103.931 18.384C104.171 18.08 104.291 17.544 104.291 16.776V13.56H104.243C103.779 14.536 102.979 15.024 101.843 15.024C100.883 15.024 100.155 14.696 99.6593 14.04C99.1633 13.384 98.9153 12.432 98.9153 11.184V8.184C98.9153 6.84 99.2593 5.8 99.9473 5.064C100.635 4.328 101.627 3.96 102.923 3.96C104.219 3.96 105.211 4.328 105.899 5.064C106.587 5.8 106.931 6.84 106.931 8.184V16.872C106.931 19.784 105.587 21.24 102.899 21.24ZM102.923 12.624C103.835 12.624 104.291 12.072 104.291 10.968V7.992C104.291 6.904 103.835 6.36 102.923 6.36C102.011 6.36 101.555 6.904 101.555 7.992V10.968C101.555 12.072 102.011 12.624 102.923 12.624ZM129.236 21.24C127.956 21.24 126.988 20.88 126.332 20.16C125.676 19.424 125.348 18.376 125.348 17.016V16.056H127.844V17.208C127.844 18.296 128.3 18.84 129.212 18.84C129.66 18.84 129.996 18.712 130.22 18.456C130.46 18.184 130.58 17.752 130.58 17.16C130.58 16.456 130.42 15.84 130.1 15.312C129.78 14.768 129.188 14.12 128.324 13.368C127.236 12.408 126.476 11.544 126.044 10.776C125.612 9.992 125.396 9.112 125.396 8.136C125.396 6.808 125.732 5.784 126.404 5.064C127.076 4.328 128.052 3.96 129.332 3.96C130.596 3.96 131.548 4.328 132.188 5.064C132.844 5.784 133.172 6.824 133.172 8.184V8.88H130.676V8.016C130.676 7.44 130.564 7.024 130.34 6.768C130.116 6.496 129.788 6.36 129.356 6.36C128.476 6.36 128.036 6.896 128.036 7.968C128.036 8.576 128.196 9.144 128.516 9.672C128.852 10.2 129.452 10.84 130.316 11.592C131.42 12.552 132.18 13.424 132.596 14.208C133.012 14.992 133.22 15.912 133.22 16.968C133.22 18.344 132.876 19.4 132.188 20.136C131.516 20.872 130.532 21.24 129.236 21.24Z" fill="#B00000"/>
</svg>
